<svg xmlns="http://www.w3.org/2000/svg" viewBox="0 0 100 100" fill="none" stroke="currentColor" stroke-width="2.5" stroke-linecap="round" stroke-linejoin="round">
  <!-- Left bracket -->
  <path d="M30 20 Q20 20 20 30 L20 45 Q20 50 15 50" />
  <path d="M30 80 Q20 80 20 70 L20 55 Q20 50 15 50" />
  <!-- Right bracket -->
  <path d="M70 20 Q80 20 80 30 L80 45 Q80 50 85 50" />
  <path d="M70 80 Q80 80 80 70 L80 55 Q80 50 85 50" />
  <!-- Content: function symbol -->
  <path d="M42 42 Q38 42 38 46 L38 50 Q38 54 34 54" stroke-width="2" />
  <path d="M36 47 L42 47" stroke-width="2" />
  <!-- Variable x -->
  <path d="M48 48 L52 52 M52 48 L48 52" stroke-width="2.5" />
  <path d="M56 48 L60 52 M60 48 L56 52" stroke-width="2.5" />
  <!-- Dot operator -->
  <circle cx="64" cy="50" r="2" fill="currentColor" stroke="none" />
  <!-- Output arrow -->
  <path d="M85 50 L92 50 M88 47 L92 50 L88 53" stroke-width="2" />
</svg>
